<svg width="97" height="86" viewBox="0 0 97 86" fill="none" xmlns="http://www.w3.org/2000/svg">
<g id="Group 93">
<path id="Vector" d="M39.9648 34.2947C39.9648 38.6512 43.7854 42.1827 48.4998 42.1827C53.2142 42.1827 57.0348 38.6512 57.0348 34.2947C57.0348 29.936 53.2142 26.4045 48.4998 26.4045C43.7854 26.4045 39.9648 29.936 39.9648 34.2947Z" fill="white"/>
<g id="Clip path group">
<mask id="mask0_837_1477" style="mask-type:luminance" maskUnits="userSpaceOnUse" x="8" y="0" width="81" height="40">
<g id="3cd4563a88">
<path id="Vector_2" d="M8.88379 0H88.1175V39.1646H8.88379V0Z" fill="white"/>
</g>
</mask>
<g mask="url(#mask0_837_1477)">
<g id="Group">
<path id="Vector_3" d="M48.5006 4.67975C27.5928 4.67975 10.4956 19.7452 9.2155 38.7729C9.1635 38.0121 9.13379 37.2443 9.13379 36.472C9.13379 16.3741 26.7583 0.0849609 48.5006 0.0849609C70.2403 0.0849609 87.8649 16.3741 87.8649 36.472C87.8649 37.2443 87.8376 38.0121 87.7856 38.7729C86.5055 19.7452 69.4084 4.67975 48.5006 4.67975Z" fill="white"/>
</g>
</g>
</g>
<path id="Vector_4" d="M29.4424 24.4474L48.5006 15.3884L67.5588 24.4474L57.7833 25.6345V33.2795H39.2178V25.6345L36.9003 25.3549V30.133C36.9003 30.4951 36.5808 30.7907 36.1896 30.7907C35.7959 30.7907 35.479 30.4951 35.479 30.133V25.1807L29.4424 24.4474Z" fill="white"/>
<g id="Clip path group_2">
<mask id="mask1_837_1477" style="mask-type:luminance" maskUnits="userSpaceOnUse" x="42" y="11" width="55" height="75">
<g id="73b8ee2416">
<path id="Vector_5" d="M42.4785 11.5913H96.0405V85.8001H42.4785V11.5913Z" fill="white"/>
</g>
</mask>
<g mask="url(#mask1_837_1477)">
<g id="Group_2">
<path id="Vector_6" d="M42.7825 75.6981C42.7949 74.6233 42.8395 73.8693 42.8717 73.5645C43.8423 63.8112 47.7248 54.4704 54.0783 46.5527C58.5996 40.9174 71.7697 30.6004 76.3999 18.4156C75.5036 27.9352 69.5165 37.0972 62.3458 46.5527C55.0464 56.18 63.2125 73.6814 63.2125 73.6814C79.9877 68.1081 91.9842 53.2718 91.9842 35.846C91.9842 26.9704 88.8693 18.7708 83.6003 12.1204C91.3256 19.9327 96.04 30.3368 96.04 41.7562C96.04 62.3835 80.6637 79.6902 59.9292 84.4225C56.2671 85.2566 52.4392 85.6989 48.4998 85.6989C46.8581 85.6989 45.2388 85.6233 43.6417 85.4743C42.8915 81.5395 42.7603 77.9256 42.7825 75.6981Z" fill="white"/>
</g>
</g>
</g>
<g id="Clip path group_3">
<mask id="mask2_837_1477" style="mask-type:luminance" maskUnits="userSpaceOnUse" x="0" y="11" width="47" height="75">
<g id="d2fcbdda55">
<path id="Vector_7" d="M0.959961 11.5913H46.9155V85.5113H0.959961V11.5913Z" fill="white"/>
</g>
</mask>
<g mask="url(#mask2_837_1477)">
<g id="Group_3">
<path id="Vector_8" d="M39.3462 75.666C39.3586 74.5225 39.4081 73.6722 39.4527 73.2597C40.2054 65.6789 42.6245 58.325 46.5317 51.6241C45.4348 49.8779 44.2315 48.1843 42.9216 46.5527C38.4004 40.9174 25.2302 30.6004 20.6 18.4179C21.4964 27.9352 27.4835 37.0972 34.6516 46.5527C41.9535 56.18 33.7875 73.6814 33.7875 73.6814C17.0122 68.1081 5.01574 53.2718 5.01574 35.8483C5.01574 26.9704 8.13061 18.7708 13.3997 12.1204C5.67437 19.9327 0.959961 30.3368 0.959961 41.7562C0.959961 62.3835 16.3363 79.6902 37.0707 84.4225C38.0612 84.647 39.0615 84.8441 40.0767 85.0091C39.4057 81.017 39.3289 77.4902 39.3462 75.666Z" fill="#98B7F4"/>
</g>
</g>
</g>
</g>
</svg>
