<svg width="32" height="32" viewBox="0 0 32 32" fill="none" xmlns="http://www.w3.org/2000/svg">
<g id="mi:print">
<path id="Vector" d="M9.33366 2.66675C8.98004 2.66675 8.6409 2.80722 8.39085 3.05727C8.1408 3.30732 8.00033 3.64646 8.00033 4.00008V9.33341H5.33366C4.62641 9.33341 3.94814 9.61437 3.44804 10.1145C2.94794 10.6146 2.66699 11.2928 2.66699 12.0001V22.6667C2.66699 23.374 2.94794 24.0523 3.44804 24.5524C3.94814 25.0525 4.62641 25.3334 5.33366 25.3334H8.00033V28.0001C8.00033 28.3537 8.1408 28.6928 8.39085 28.9429C8.6409 29.1929 8.98004 29.3334 9.33366 29.3334H22.667C23.0206 29.3334 23.3598 29.1929 23.6098 28.9429C23.8598 28.6928 24.0003 28.3537 24.0003 28.0001V25.3334H26.667C27.3742 25.3334 28.0525 25.0525 28.5526 24.5524C29.0527 24.0523 29.3337 23.374 29.3337 22.6667V12.0001C29.3337 11.2928 29.0527 10.6146 28.5526 10.1145C28.0525 9.61437 27.3742 9.33341 26.667 9.33341H24.0003V4.00008C24.0003 3.64646 23.8598 3.30732 23.6098 3.05727C23.3598 2.80722 23.0206 2.66675 22.667 2.66675H9.33366ZM22.667 18.6667H9.33366C8.98004 18.6667 8.6409 18.8072 8.39085 19.0573C8.1408 19.3073 8.00033 19.6465 8.00033 20.0001V22.6667H5.33366V12.0001H26.667V22.6667H24.0003V20.0001C24.0003 19.6465 23.8598 19.3073 23.6098 19.0573C23.3598 18.8072 23.0206 18.6667 22.667 18.6667ZM21.3337 9.33341H10.667V5.33341H21.3337V9.33341ZM6.66699 13.3334V16.0001H10.667V13.3334H6.66699ZM21.3337 21.3334V26.6667H10.667V21.3334H21.3337Z" fill="#1246AC"/>
</g>
</svg>
