<svg width="203" height="22" viewBox="0 0 23 22" fill="red" xmlns="http://www.w3.org/2000/svg">
<g id="Vector">
<path d="M21.7826 11.75H7.91295C7.51695 11.75 7.19556 11.414 7.19556 11C7.19556 10.586 7.51695 10.25 7.91295 10.25H21.7826C22.1786 10.25 22.5 10.586 22.5 11C22.5 11.414 22.1786 11.75 21.7826 11.75Z" fill="white"/>
<path d="M11.739 15.7499C11.5553 15.7499 11.3718 15.677 11.232 15.53L7.40597 11.5301C7.12574 11.2369 7.12574 10.7619 7.40597 10.469L11.232 6.46904C11.5122 6.17608 11.9665 6.17608 12.247 6.46904C12.5272 6.76201 12.5272 7.23699 12.247 7.52995L8.9278 11L12.247 14.47C12.5272 14.7629 12.5272 15.2379 12.247 15.5309C12.1063 15.677 11.9226 15.7499 11.739 15.7499Z" fill="white"/>
<path d="M11.0218 22C5.22048 22 0.5 17.065 0.5 11C0.5 4.93503 5.22048 0 11.0218 0C15.3748 0 19.2182 2.73796 20.8146 6.9761C20.96 7.36098 20.7782 7.79604 20.41 7.94893C20.0417 8.09908 19.6256 7.91194 19.4793 7.52504C18.1009 3.86497 14.7809 1.49999 11.0218 1.49999C6.01143 1.49999 1.93478 5.76211 1.93478 11C1.93478 16.2379 6.01143 20.5 11.0218 20.5C14.7809 20.5 18.1009 18.135 19.4793 14.4761C19.6247 14.089 20.0408 13.902 20.41 14.052C20.7782 14.204 20.96 14.6399 20.8146 15.025C19.2182 19.262 15.3748 22 11.0218 22Z" fill="white"/>
</g>
</svg>
